<?xml version="1.0" encoding="UTF-8" standalone="no"?>
<!DOCTYPE svg PUBLIC "-//W3C//DTD SVG 1.1//EN"
 "http://www.w3.org/Graphics/SVG/1.1/DTD/svg11.dtd">
<!-- Generated by graphviz version 12.0.0 (20240803.0821)
 -->
<!-- Pages: 1 -->
<svg width="361pt" height="332pt"
 viewBox="0.00 0.00 360.75 332.00" xmlns="http://www.w3.org/2000/svg" xmlns:xlink="http://www.w3.org/1999/xlink">
<g id="graph0" class="graph" transform="scale(1 1) rotate(0) translate(4 328)">
<polygon fill="white" stroke="none" points="-4,4 -4,-328 356.75,-328 356.75,4 -4,4"/>
<!-- 6220559845439427335 -->
<g id="node1" class="node">
<title>6220559845439427335</title>
<polygon fill="none" stroke="black" points="163.75,-324 44.25,-324 44.25,-288 163.75,-288 163.75,-324"/>
<text text-anchor="middle" x="104" y="-299" font-family="Helvetica,sans-Serif" font-size="20.00">Size(Filter)</text>
</g>
<!-- &#45;1429657837289284404 -->
<g id="node2" class="node">
<title>&#45;1429657837289284404</title>
<polygon fill="none" stroke="black" points="208,-252 0,-252 0,-216 208,-216 208,-252"/>
<text text-anchor="middle" x="104" y="-227" font-family="Helvetica,sans-Serif" font-size="20.00">Filter(ReadCSV, GT)</text>
</g>
<!-- &#45;1429657837289284404&#45;&gt;6220559845439427335 -->
<g id="edge1" class="edge">
<title>&#45;1429657837289284404&#45;&gt;6220559845439427335</title>
<path fill="none" stroke="black" d="M104,-252.3C104,-259.59 104,-268.27 104,-276.46"/>
<polygon fill="black" stroke="black" points="100.5,-276.38 104,-286.38 107.5,-276.38 100.5,-276.38"/>
</g>
<!-- 6363072632493669962 -->
<g id="node3" class="node">
<title>6363072632493669962</title>
<polygon fill="none" stroke="black" points="267.12,-180 86.88,-180 86.88,-144 267.12,-144 267.12,-180"/>
<text text-anchor="middle" x="177" y="-155" font-family="Helvetica,sans-Serif" font-size="20.00">GT(Projection, 0)</text>
</g>
<!-- 6363072632493669962&#45;&gt;&#45;1429657837289284404 -->
<g id="edge2" class="edge">
<title>6363072632493669962&#45;&gt;&#45;1429657837289284404</title>
<path fill="none" stroke="black" d="M158.96,-180.3C150.27,-188.63 139.69,-198.78 130.14,-207.93"/>
<polygon fill="black" stroke="black" points="127.98,-205.16 123.18,-214.61 132.82,-210.21 127.98,-205.16"/>
</g>
<!-- &#45;4527146131389156815 -->
<g id="node4" class="node">
<title>&#45;4527146131389156815</title>
<polygon fill="none" stroke="black" points="352.75,-108 59.25,-108 59.25,-72 352.75,-72 352.75,-108"/>
<text text-anchor="middle" x="206" y="-83" font-family="Helvetica,sans-Serif" font-size="20.00">Projection(ReadCSV, SNOW)</text>
</g>
<!-- &#45;4527146131389156815&#45;&gt;6363072632493669962 -->
<g id="edge4" class="edge">
<title>&#45;4527146131389156815&#45;&gt;6363072632493669962</title>
<path fill="none" stroke="black" d="M198.83,-108.3C195.71,-115.85 191.96,-124.88 188.47,-133.32"/>
<polygon fill="black" stroke="black" points="185.26,-131.92 184.67,-142.5 191.73,-134.6 185.26,-131.92"/>
</g>
<!-- 9129964683712590419 -->
<g id="node5" class="node">
<title>9129964683712590419</title>
<polygon fill="none" stroke="black" points="171,-36 65,-36 65,0 171,0 171,-36"/>
<text text-anchor="middle" x="118" y="-11" font-family="Helvetica,sans-Serif" font-size="20.00">ReadCSV</text>
</g>
<!-- 9129964683712590419&#45;&gt;&#45;1429657837289284404 -->
<g id="edge3" class="edge">
<title>9129964683712590419&#45;&gt;&#45;1429657837289284404</title>
<path fill="none" stroke="black" d="M84.28,-36.38C71.04,-45.12 57.29,-57.07 50,-72 27.74,-117.57 59.78,-174.59 83.19,-207.1"/>
<polygon fill="black" stroke="black" points="80.12,-208.84 88.91,-214.76 85.74,-204.66 80.12,-208.84"/>
</g>
<!-- 9129964683712590419&#45;&gt;&#45;4527146131389156815 -->
<g id="edge5" class="edge">
<title>9129964683712590419&#45;&gt;&#45;4527146131389156815</title>
<path fill="none" stroke="black" d="M139.75,-36.3C150.44,-44.8 163.49,-55.19 175.18,-64.49"/>
<polygon fill="black" stroke="black" points="173,-67.22 183.01,-70.71 177.36,-61.75 173,-67.22"/>
</g>
</g>
</svg>