<?xml version="1.0" encoding="UTF-8" standalone="no"?>
<!DOCTYPE svg PUBLIC "-//W3C//DTD SVG 1.1//EN"
 "http://www.w3.org/Graphics/SVG/1.1/DTD/svg11.dtd">
<!-- Generated by graphviz version 12.0.0 (20240803.0821)
 -->
<!-- Pages: 1 -->
<svg width="582pt" height="404pt"
 viewBox="0.00 0.00 581.75 404.00" xmlns="http://www.w3.org/2000/svg" xmlns:xlink="http://www.w3.org/1999/xlink">
<g id="graph0" class="graph" transform="scale(1 1) rotate(0) translate(4 400)">
<polygon fill="white" stroke="none" points="-4,4 -4,-400 577.75,-400 577.75,4 -4,4"/>
<!-- 2071297817155493351 -->
<g id="node1" class="node">
<title>2071297817155493351</title>
<polygon fill="none" stroke="black" points="232.75,-396 113.25,-396 113.25,-360 232.75,-360 232.75,-396"/>
<text text-anchor="middle" x="173" y="-371" font-family="Helvetica,sans-Serif" font-size="20.00">Size(Filter)</text>
</g>
<!-- &#45;6372736011616019805 -->
<g id="node2" class="node">
<title>&#45;6372736011616019805</title>
<polygon fill="none" stroke="black" points="346,-324 0,-324 0,-288 346,-288 346,-324"/>
<text text-anchor="middle" x="173" y="-299" font-family="Helvetica,sans-Serif" font-size="20.00">Filter(ArrowStringConversion, GT)</text>
</g>
<!-- &#45;6372736011616019805&#45;&gt;2071297817155493351 -->
<g id="edge1" class="edge">
<title>&#45;6372736011616019805&#45;&gt;2071297817155493351</title>
<path fill="none" stroke="black" d="M173,-324.3C173,-331.59 173,-340.27 173,-348.46"/>
<polygon fill="black" stroke="black" points="169.5,-348.38 173,-358.38 176.5,-348.38 169.5,-348.38"/>
</g>
<!-- 560048384469261963 -->
<g id="node3" class="node">
<title>560048384469261963</title>
<polygon fill="none" stroke="black" points="385.12,-252 204.88,-252 204.88,-216 385.12,-216 385.12,-252"/>
<text text-anchor="middle" x="295" y="-227" font-family="Helvetica,sans-Serif" font-size="20.00">GT(Projection, 0)</text>
</g>
<!-- 560048384469261963&#45;&gt;&#45;6372736011616019805 -->
<g id="edge2" class="edge">
<title>560048384469261963&#45;&gt;&#45;6372736011616019805</title>
<path fill="none" stroke="black" d="M264.53,-252.48C248.84,-261.49 229.51,-272.58 212.67,-282.24"/>
<polygon fill="black" stroke="black" points="211.33,-278.97 204.4,-286.99 214.81,-285.05 211.33,-278.97"/>
</g>
<!-- 61792731424736648 -->
<g id="node4" class="node">
<title>61792731424736648</title>
<polygon fill="none" stroke="black" points="573.75,-180 142.25,-180 142.25,-144 573.75,-144 573.75,-180"/>
<text text-anchor="middle" x="358" y="-155" font-family="Helvetica,sans-Serif" font-size="20.00">Projection(ArrowStringConversion, SNOW)</text>
</g>
<!-- 61792731424736648&#45;&gt;560048384469261963 -->
<g id="edge4" class="edge">
<title>61792731424736648&#45;&gt;560048384469261963</title>
<path fill="none" stroke="black" d="M342.43,-180.3C335.03,-188.53 326.03,-198.52 317.88,-207.58"/>
<polygon fill="black" stroke="black" points="315.49,-205 311.41,-214.77 320.7,-209.68 315.49,-205"/>
</g>
<!-- 4110187285205978524 -->
<g id="node5" class="node">
<title>4110187285205978524</title>
<polygon fill="none" stroke="black" points="465.62,-108 6.38,-108 6.38,-72 465.62,-72 465.62,-108"/>
<text text-anchor="middle" x="236" y="-83" font-family="Helvetica,sans-Serif" font-size="20.00">ArrowStringConversion(FromMapProjectable)</text>
</g>
<!-- 4110187285205978524&#45;&gt;&#45;6372736011616019805 -->
<g id="edge3" class="edge">
<title>4110187285205978524&#45;&gt;&#45;6372736011616019805</title>
<path fill="none" stroke="black" d="M176.29,-108.42C159.35,-116.43 142.85,-127.86 133,-144 107.17,-186.34 134.18,-244.56 154.64,-278.14"/>
<polygon fill="black" stroke="black" points="151.59,-279.88 159.9,-286.45 157.51,-276.13 151.59,-279.88"/>
</g>
<!-- 4110187285205978524&#45;&gt;61792731424736648 -->
<g id="edge5" class="edge">
<title>4110187285205978524&#45;&gt;61792731424736648</title>
<path fill="none" stroke="black" d="M266.47,-108.48C282.16,-117.49 301.49,-128.58 318.33,-138.24"/>
<polygon fill="black" stroke="black" points="316.19,-141.05 326.6,-142.99 319.67,-134.97 316.19,-141.05"/>
</g>
<!-- &#45;6213938433499937151 -->
<g id="node6" class="node">
<title>&#45;6213938433499937151</title>
<polygon fill="none" stroke="black" points="344.12,-36 127.88,-36 127.88,0 344.12,0 344.12,-36"/>
<text text-anchor="middle" x="236" y="-11" font-family="Helvetica,sans-Serif" font-size="20.00">FromMapProjectable</text>
</g>
<!-- &#45;6213938433499937151&#45;&gt;4110187285205978524 -->
<g id="edge6" class="edge">
<title>&#45;6213938433499937151&#45;&gt;4110187285205978524</title>
<path fill="none" stroke="black" d="M236,-36.3C236,-43.59 236,-52.27 236,-60.46"/>
<polygon fill="black" stroke="black" points="232.5,-60.38 236,-70.38 239.5,-60.38 232.5,-60.38"/>
</g>
</g>
</svg>